<svg width="354" height="109" viewBox="0 0 354 109" fill="none" xmlns="http://www.w3.org/2000/svg">
<g clip-path="url(#clip0_1_35)">
<path d="M24.8889 0C22.1958 0 20 2.24572 20 5V35C20 37.7543 22.1958 40 24.8889 40H39.1111C41.8042 40 44 37.7543 44 35V5C44 2.24572 41.8042 0 39.1111 0H24.8889ZM24.8889 1.81818H39.1111C40.6989 1.81818 41.9836 2.98815 42.1944 4.54545H21.8056C22.0164 2.98815 23.3011 1.81818 24.8889 1.81818ZM21.7778 6.36363H42.2222V31.8182H21.7778V6.36363ZM21.7778 33.6364H42.2222V35C42.2222 36.7785 40.85 38.1818 39.1111 38.1818H24.8889C23.15 38.1818 21.7778 36.7785 21.7778 35V33.6364ZM32 34.5455C31.2636 34.5455 30.6667 35.156 30.6667 35.9091C30.6667 36.6622 31.2636 37.2727 32 37.2727C32.7364 37.2727 33.3333 36.6622 33.3333 35.9091C33.3333 35.156 32.7364 34.5455 32 34.5455Z" fill="#EEEEEE"/>
<path d="M287.052 2.28581C286.094 2.28581 285.266 2.80775 284.831 3.54717L282.784 2.3728C281.565 1.67688 279.953 1.98135 279.082 3.06872C278.952 3.2427 277.776 4.80852 277.776 8.37511C277.776 11.9417 278.952 13.5075 279.082 13.6815C279.649 14.3774 280.52 14.7689 281.391 14.7689C281.87 14.7689 282.392 14.6384 282.828 14.3774L284.003 13.6815C284.178 13.5945 284.308 13.5075 284.483 13.4205V17.8135C284.483 18.9444 285.223 19.9013 286.224 20.2492C286.137 21.6846 285.702 25.6861 283.002 28.2958C282.305 28.9482 281.739 29.5137 281.216 29.9921C278.952 32.1234 277.907 33.0803 276.644 36.1684C276.47 36.6034 276.687 37.1253 277.123 37.2993C277.21 37.3428 277.341 37.3428 277.471 37.3428C277.82 37.3428 278.124 37.1253 278.299 36.8208C279.431 34.0807 280.171 33.3412 282.479 31.2535C283.002 30.775 283.612 30.2096 284.308 29.5572C287.531 26.469 288.01 21.9021 288.054 20.2492C289.055 19.9013 289.795 18.9444 289.795 17.77V4.89551C289.665 3.46018 288.489 2.28581 287.052 2.28581ZM286.181 4.89551C286.181 4.41707 286.573 4.02561 287.052 4.02561C287.531 4.02561 287.923 4.41707 287.923 4.89551V17.8135C287.923 18.292 287.531 18.6834 287.052 18.6834C286.573 18.6834 286.181 18.292 286.181 17.8135V4.89551ZM283.089 12.2027L281.957 12.8551C281.478 13.1161 280.824 12.9856 280.476 12.5941C280.476 12.5941 279.561 11.3328 279.561 8.37511C279.561 5.41745 280.476 4.1561 280.476 4.1561C280.824 3.76464 281.478 3.63416 281.957 3.89513L284.483 5.33046V11.4198C284.178 11.5502 283.699 11.8547 283.089 12.2027ZM263.666 29.9921C263.144 29.5137 262.577 28.9482 261.881 28.2958C259.181 25.6861 258.745 21.6846 258.658 20.2492C259.66 19.9013 260.4 18.9444 260.4 17.8135V13.4205C260.531 13.5075 260.705 13.5945 260.879 13.6815L262.055 14.3774C262.49 14.6384 262.969 14.7689 263.492 14.7689C264.363 14.7689 265.234 14.3774 265.8 13.6815C265.931 13.5075 267.107 11.9417 267.107 8.37511C267.107 4.80852 265.931 3.2427 265.8 3.06872C264.929 1.98135 263.318 1.67688 262.098 2.3728L260.052 3.54717C259.573 2.80775 258.745 2.28581 257.831 2.28581C256.394 2.28581 255.218 3.46018 255.218 4.89551V17.8135C255.218 18.9444 255.958 19.9013 256.96 20.2927C257.003 21.9455 257.482 26.5125 260.705 29.6007C261.402 30.2531 262.011 30.8185 262.534 31.297C264.798 33.3847 265.582 34.1241 266.715 36.8643C266.845 37.2123 267.194 37.3863 267.542 37.3863C267.673 37.3863 267.76 37.3863 267.89 37.3428C268.326 37.1688 268.544 36.6469 268.369 36.2119C266.976 33.0803 265.931 32.1234 263.666 29.9921ZM262.882 3.85163C263.361 3.59066 264.015 3.72115 264.363 4.1126C264.363 4.1126 265.278 5.37396 265.278 8.33162C265.278 11.2893 264.363 12.5506 264.363 12.5506C264.015 12.9421 263.361 13.0726 262.882 12.8116L261.707 12.1157C261.14 11.7677 260.618 11.5068 260.356 11.3328V5.24347L262.882 3.85163ZM256.916 4.89551C256.916 4.41707 257.308 4.02561 257.787 4.02561C258.266 4.02561 258.658 4.41707 258.658 4.89551V17.8135C258.658 18.292 258.266 18.6834 257.787 18.6834C257.308 18.6834 256.916 18.292 256.916 17.8135V4.89551Z" fill="#EEEEEE"/>
<path d="M149.243 11.9509C148.022 7.02455 146.024 4.1066 143.286 3.27291C139.439 2.09815 135.517 5.43294 134.407 6.49401C134.148 6.72138 134 7.06244 134 7.4414V12.9741C134 13.3152 134.111 13.6183 134.333 13.8457C135.11 14.7552 139.106 18.9616 143.582 16.65V33.6271V34.8398V35.2566C143.582 36.204 144.322 36.9619 145.247 36.9619H147.948C148.873 36.9619 149.613 36.204 149.613 35.2566V34.8398V33.6271V15.4373C149.613 13.8457 149.28 12.0646 149.243 11.9509ZM148.429 35.2945C148.429 35.5598 148.207 35.7871 147.948 35.7871H145.247C144.988 35.7871 144.766 35.5598 144.766 35.2945V34.8776H148.466V35.2945H148.429ZM144.766 33.665V15.4373V15.3615C144.692 14.9068 144.248 13.9594 143.027 13.4668C142.731 13.3531 142.361 13.5047 142.25 13.8078C142.139 14.111 142.287 14.4899 142.583 14.6036C143.138 14.831 143.397 15.1342 143.508 15.3615C139.734 17.7489 136.22 14.2626 135.221 13.0878C135.221 13.0878 135.184 13.0499 135.184 13.012V7.4414C135.184 7.4035 135.184 7.36561 135.221 7.36561C135.924 6.68349 139.624 3.42449 142.916 4.40977C145.21 5.12978 146.949 7.74456 148.059 12.2162C148.059 12.2162 148.392 13.9594 148.392 15.3994V33.6271H144.766V33.665Z" fill="#EEEEEE"/>
<path d="M138.181 11.1118C138.713 11.1118 139.145 10.6732 139.145 10.1322C139.145 9.59117 138.713 9.1526 138.181 9.1526C137.648 9.1526 137.217 9.59117 137.217 10.1322C137.217 10.6732 137.648 11.1118 138.181 11.1118Z" fill="#EEEEEE"/>
<path d="M143.212 4.90262C142.916 4.75104 142.546 4.90262 142.435 5.20578C142.287 5.50895 142.435 5.8879 142.731 6.00159C143.212 6.22896 143.841 6.91108 144.026 7.13845C144.137 7.29003 144.322 7.36582 144.47 7.36582C144.618 7.36582 144.729 7.32793 144.84 7.21424C145.099 6.98687 145.136 6.60791 144.914 6.34265C144.877 6.30475 144.063 5.28157 143.212 4.90262Z" fill="#EEEEEE"/>
<path d="M152.387 15.4375V33.6652V34.8779V35.2947C152.387 36.2421 153.127 37 154.052 37H156.753C157.678 37 158.418 36.2421 158.418 35.2947V34.8779V33.6652V16.6881C162.894 18.9997 166.89 14.7933 167.667 13.8838C167.889 13.6565 168 13.3154 168 13.0122V7.44161C168 7.06266 167.852 6.7216 167.593 6.45633C166.483 5.39526 162.561 2.09836 158.751 3.23522C156.013 4.06892 154.015 6.98687 152.794 11.9133C152.72 12.0648 152.387 13.8459 152.387 15.4375ZM153.571 34.8779H157.271V35.2947C157.271 35.56 157.049 35.7873 156.79 35.7873H154.089C153.83 35.7873 153.608 35.56 153.608 35.2947V34.8779H153.571ZM153.571 33.6652V15.4375C153.571 13.9975 153.904 12.2543 153.904 12.2543C155.014 7.78267 156.753 5.16789 159.047 4.44788C162.339 3.4247 166.039 6.7216 166.742 7.40372C166.779 7.44161 166.779 7.44161 166.779 7.47951V13.0122C166.779 13.0501 166.779 13.0501 166.742 13.088C165.743 14.2249 162.229 17.7492 158.455 15.3617C158.566 15.1723 158.825 14.8312 159.38 14.6038C159.676 14.4901 159.824 14.1491 159.713 13.808C159.602 13.5049 159.269 13.3533 158.936 13.467C157.715 13.9596 157.271 14.8691 157.197 15.3617V15.4375V33.6652H153.571Z" fill="#EEEEEE"/>
<path d="M163.819 11.1118C164.352 11.1118 164.783 10.6732 164.783 10.1322C164.783 9.59117 164.352 9.1526 163.819 9.1526C163.287 9.1526 162.855 9.59117 162.855 10.1322C162.855 10.6732 163.287 11.1118 163.819 11.1118Z" fill="#EEEEEE"/>
<path d="M158.788 4.90262C159.084 4.75104 159.454 4.90262 159.565 5.20578C159.713 5.50895 159.565 5.8879 159.269 6.00159C158.788 6.22896 158.159 6.91108 157.974 7.13845C157.863 7.29003 157.678 7.36582 157.53 7.36582C157.382 7.36582 157.271 7.32793 157.16 7.21424C156.901 6.98687 156.864 6.60791 157.086 6.34265C157.123 6.30475 157.937 5.28157 158.788 4.90262Z" fill="#EEEEEE"/>
<path d="M353.224 61.4595H346.685C346.297 60.5946 345.411 60 344.413 60C343.416 60 342.529 60.5946 342.141 61.4595H335.602C335.159 61.4595 334.771 61.8378 334.771 62.2703C334.771 62.7027 335.159 63.0811 335.602 63.0811H341.864V65.7297H322.081V63.0811H328.343C328.786 63.0811 329.174 62.7027 329.174 62.2703C329.174 61.8378 328.786 61.4595 328.343 61.4595H321.859C321.471 60.5946 320.584 60 319.587 60C318.589 60 317.703 60.5946 317.315 61.4595H310.831C310.388 61.4595 310 61.8378 310 62.2703C310 62.7027 310.388 63.0811 310.831 63.0811H317.093V65.7838C315.652 66 314.544 67.2432 314.544 68.7027C314.544 70.3243 315.929 71.6757 317.592 71.6757H323.134V76C323.134 76.4865 323.244 76.973 323.411 77.3514C320.474 79.7838 318.756 83.3514 318.756 87.1351C318.756 87.5676 319.144 87.9459 319.587 87.9459C320.03 87.9459 320.418 87.5676 320.418 87.1351C320.418 83.8378 321.859 80.8108 324.353 78.6486C324.851 79.027 325.406 79.3514 326.071 79.4595V79.9459C326.071 83.1351 328.73 85.7297 332 85.7297C335.27 85.7297 337.929 83.1351 337.929 79.9459V79.4595C338.594 79.3514 339.204 79.0811 339.703 78.7027C342.196 80.8649 343.637 83.8919 343.637 87.1892C343.637 87.6216 344.025 88 344.469 88C344.912 88 345.3 87.6216 345.3 87.1892C345.3 83.4054 343.637 79.8919 340.7 77.4054C340.866 76.973 340.977 76.4865 340.977 76V71.6757H346.186C347.849 71.6757 349.234 70.3243 349.234 68.7027C349.234 67.2973 348.237 66.1081 346.907 65.8378V63.0811H353.169C353.612 63.0811 354 62.7027 354 62.2703C354 61.8378 353.668 61.4595 353.224 61.4595ZM343.582 63.0811H345.244V65.7297H343.582V63.0811ZM318.756 65.7297V63.0811H320.418V65.7297H318.756ZM332 84.1622C329.673 84.1622 327.733 82.3243 327.733 80C327.733 77.7297 329.617 75.8378 332 75.8378C334.327 75.8378 336.267 77.6757 336.267 80C336.267 82.2703 334.383 84.1622 332 84.1622ZM339.259 76.0541C339.259 77.027 338.484 77.8378 337.486 77.9459C336.655 75.7838 334.494 74.2162 331.945 74.2162C329.451 74.2162 327.29 75.7297 326.403 77.8919C325.516 77.7838 324.796 77.027 324.796 76.0541V71.7297H339.315V76.0541H339.259ZM347.572 68.7027C347.572 69.4595 346.962 70.0541 346.186 70.0541H340.977H323.134H317.647C316.872 70.0541 316.262 69.4595 316.262 68.7027C316.262 67.9459 316.872 67.3514 317.647 67.3514H346.186C346.962 67.3514 347.572 67.9459 347.572 68.7027Z" fill="#EEEEEE"/>
<path d="M331.501 76.8649C331.058 76.8649 330.67 77.2432 330.67 77.6757C330.67 78.1081 331.058 78.4865 331.501 78.4865C332.554 78.4865 333.385 79.2973 333.385 80.3243C333.385 80.7568 333.773 81.1351 334.217 81.1351C334.66 81.1351 335.048 80.7568 335.048 80.3243C335.103 78.4324 333.496 76.8649 331.501 76.8649Z" fill="#EEEEEE"/>
<path d="M234.624 68.716H232.994C232.655 65.5257 229.871 63 226.477 63H218.805H211.54H199.455C196.061 63 193.345 65.5257 192.938 68.716H191.308C190.018 68.716 189 69.713 189 70.9758V77.1571C189 78.4199 190.018 79.4169 191.308 79.4169H192.938C193.006 79.9486 193.141 80.4139 193.277 80.8792L193.413 81.0786C194.092 82.7402 195.45 84.003 197.147 84.6677H197.215C197.554 84.8006 197.962 84.8671 198.301 84.9335C198.437 84.9335 198.505 85 198.641 85H198.844H199.455H200.949H205.973C207.195 85 208.349 84.5347 209.3 83.6042C210.25 82.6737 211.54 82.142 212.966 82.142C214.392 82.142 215.614 82.6737 216.632 83.6042C217.583 84.4683 218.737 85 219.959 85H226.545C229.939 85 232.655 82.4743 233.062 79.284H234.692C235.982 79.284 237 78.287 237 77.0242V70.8429C236.932 69.7795 235.914 68.716 234.624 68.716ZM235.371 77.2236C235.371 77.6224 235.031 77.9547 234.624 77.9547H233.062V70.2447H234.624C235.031 70.2447 235.371 70.577 235.371 70.9758V77.2236ZM226.477 83.6042H219.891C219.076 83.6042 218.262 83.2719 217.651 82.6737C216.361 81.4773 214.731 80.8127 212.898 80.8127C211.133 80.8127 209.436 81.4773 208.146 82.6737C207.535 83.2719 206.72 83.6042 205.905 83.6042H202.103L217.447 64.5287H226.341C229.124 64.5287 231.365 66.7221 231.365 69.4471V78.7523C231.501 81.4109 229.26 83.6042 226.477 83.6042ZM194.431 78.7523V69.4471C194.431 66.7221 196.672 64.5287 199.455 64.5287H210.047L194.567 79.6828C194.499 79.4169 194.431 79.0846 194.431 78.7523ZM190.562 77.2236V71.0423C190.562 70.6435 190.901 70.3112 191.308 70.3112H192.87V78.0211H191.308C190.901 77.9547 190.562 77.6224 190.562 77.2236ZM199.455 83.6042H199.048H198.912C198.777 83.6042 198.709 83.6042 198.573 83.5378C198.505 83.5378 198.369 83.4713 198.301 83.4713C198.233 83.4713 198.233 83.4713 198.165 83.4048C196.943 83.0725 195.857 82.2749 195.178 81.2115L212.219 64.5287H215.614L200.202 83.6042H199.455Z" fill="#EEEEEE"/>
<path d="M77.034 87.7415H73.2245C71.0476 87.7415 69.2517 85.9359 69.2517 83.7472V71.4359C69.2517 69.2472 71.0476 67.4415 73.2245 67.4415H77.034V66.2377H78.2857V66.183H73.2245C70.3401 66.183 68 68.5359 68 71.4359V83.7472C68 86.6472 70.3401 89 73.2245 89H77.034V87.7415Z" fill="#EEEEEE"/>
<path d="M73.1156 73.9528C74.2878 73.9528 75.2381 72.9974 75.2381 71.8189C75.2381 70.6403 74.2878 69.6849 73.1156 69.6849C71.9434 69.6849 70.9932 70.6403 70.9932 71.8189C70.9932 72.9974 71.9434 73.9528 73.1156 73.9528Z" fill="#EEEEEE"/>
<path d="M73.1157 77.6281C73.6645 77.6281 74.1095 77.183 74.1095 76.634C74.1095 76.0849 73.6645 75.6398 73.1157 75.6398C72.5668 75.6398 72.1218 76.0849 72.1218 76.634C72.1218 77.183 72.5668 77.6281 73.1157 77.6281Z" fill="#EEEEEE"/>
<path d="M73.1157 81.0753C73.6645 81.0753 74.1095 80.6302 74.1095 80.0811C74.1095 79.5321 73.6645 79.087 73.1157 79.087C72.5668 79.087 72.1218 79.5321 72.1218 80.0811C72.1218 80.6302 72.5668 81.0753 73.1157 81.0753Z" fill="#EEEEEE"/>
<path d="M71.4286 79.3243C71.9774 79.3243 72.4224 78.8792 72.4224 78.3302C72.4224 77.7811 71.9774 77.3361 71.4286 77.3361C70.8797 77.3361 70.4348 77.7811 70.4348 78.3302C70.4348 78.8792 70.8797 79.3243 71.4286 79.3243Z" fill="#EEEEEE"/>
<path d="M74.8571 79.3243C75.406 79.3243 75.851 78.8792 75.851 78.3302C75.851 77.7811 75.406 77.3361 74.8571 77.3361C74.3083 77.3361 73.8633 77.7811 73.8633 78.3302C73.8633 78.8792 74.3083 79.3243 74.8571 79.3243Z" fill="#EEEEEE"/>
<path d="M110.776 60H105.714V66.183H106.966V61.2038H110.776C112.952 61.2038 114.748 63.0094 114.748 65.1981V77.5094C114.748 79.6981 112.952 81.5038 110.776 81.5038H106.966V82.7623H110.776C113.66 82.7623 116 80.4094 116 77.5094V65.2528C116 62.3528 113.66 60 110.776 60Z" fill="#EEEEEE"/>
<path d="M110.884 74.883C112.057 74.883 113.007 73.9276 113.007 72.7491C113.007 71.5705 112.057 70.6151 110.884 70.6151C109.712 70.6151 108.762 71.5705 108.762 72.7491C108.762 73.9276 109.712 74.883 110.884 74.883Z" fill="#EEEEEE"/>
<path d="M110.884 68.9828C111.433 68.9828 111.878 68.5377 111.878 67.9887C111.878 67.4396 111.433 66.9945 110.884 66.9945C110.335 66.9945 109.891 67.4396 109.891 67.9887C109.891 68.5377 110.335 68.9828 110.884 68.9828Z" fill="#EEEEEE"/>
<path d="M110.884 65.4809C111.433 65.4809 111.878 65.0358 111.878 64.4868C111.878 63.9377 111.433 63.4927 110.884 63.4927C110.335 63.4927 109.891 63.9377 109.891 64.4868C109.891 65.0358 110.335 65.4809 110.884 65.4809Z" fill="#EEEEEE"/>
<path d="M112.571 67.2319C113.12 67.2319 113.565 66.7868 113.565 66.2377C113.565 65.6887 113.12 65.2436 112.571 65.2436C112.023 65.2436 111.578 65.6887 111.578 66.2377C111.578 66.7868 112.023 67.2319 112.571 67.2319Z" fill="#EEEEEE"/>
<path d="M109.143 67.2319C109.692 67.2319 110.137 66.7868 110.137 66.2377C110.137 65.6887 109.692 65.2436 109.143 65.2436C108.594 65.2436 108.149 65.6887 108.149 66.2377C108.149 66.7868 108.594 67.2319 109.143 67.2319Z" fill="#EEEEEE"/>
<path d="M106.966 81.6132V66.183H105.714H78.2857H77.034V67.3868V87.7415V89H78.2857H106.966V82.817V81.6132ZM105.714 82.817V87.7415H78.2857V67.4415H105.769V82.817H105.714Z" fill="#EEEEEE"/>
<path d="M104.844 68.3717H79.1564V86.866H104.789V68.3717H104.844ZM103.592 85.6075H80.4081V69.5755H103.592V85.6075Z" fill="#EEEEEE"/>
</g>
<defs>
<clipPath id="clip0_1_35">
<rect width="354" height="109" fill="white"/>
</clipPath>
</defs>
</svg>
