<svg width="128" height="128" viewBox="0 0 128 128" fill="none" xmlns="http://www.w3.org/2000/svg">
<path fill-rule="evenodd" clip-rule="evenodd" d="M0 35.8384C0 16.0454 15.9347 0 35.5911 0H78.903C81.3264 0 83.291 1.9782 83.291 4.41843C83.291 6.85867 81.3264 8.83687 78.903 8.83687H35.5911C20.7815 8.83687 8.7759 20.9259 8.7759 35.8384V92.1616C8.7759 107.074 20.7815 119.163 35.5911 119.163H92.4088C107.218 119.163 119.224 107.074 119.224 92.1616V49.1046C119.224 46.6644 121.189 44.6862 123.612 44.6862C126.035 44.6862 128 46.6644 128 49.1046V92.1616C128 111.955 112.065 128 92.4088 128H35.5911C15.9347 128 0 111.955 0 92.1616V35.8384Z" fill="black"/>
<path fill-rule="evenodd" clip-rule="evenodd" d="M107 33.6943C114.103 33.6943 119.756 27.9528 119.756 21C119.756 14.0472 114.103 8.30566 107 8.30566C99.8972 8.30566 94.2441 14.0472 94.2441 21C94.2441 27.9528 99.8972 33.6943 107 33.6943ZM107 42C118.598 42 128 32.598 128 21C128 9.40202 118.598 0 107 0C95.402 0 86 9.40202 86 21C86 32.598 95.402 42 107 42Z" fill="black"/>
<path fill-rule="evenodd" clip-rule="evenodd" d="M103.671 51.6669C105.422 53.4308 105.412 56.28 103.648 58.0308L53.9283 107.382C50.6141 110.672 45.2666 110.672 41.9523 107.382L19.9344 85.5271C18.1705 83.7763 18.1599 80.9271 19.9107 79.1632C21.6615 77.3993 24.5107 77.3887 26.2746 79.1395L47.9403 100.645L97.3075 51.6432C99.0714 49.8924 101.921 49.903 103.671 51.6669Z" fill="black"/>
</svg>
